<svg width="21" height="21" viewBox="0 0 21 21" fill="none" xmlns="http://www.w3.org/2000/svg">
<path d="M3.75903 0.567871H17.759C18.5414 0.567871 19.2917 0.878898 19.845 1.43213C20.3982 1.98536 20.7092 2.73568 20.7092 3.51807V5.51807C20.7092 6.38529 20.3353 7.16569 19.7385 7.70557L19.7219 7.72119V18.4829C19.7219 19.0001 19.5163 19.4961 19.1506 19.8618C18.7849 20.2275 18.2889 20.4331 17.7717 20.4331H10.1321V20.4321L10.1223 20.4341C10.0025 20.4567 9.88092 20.4682 9.75903 20.4683H7.75903C7.63715 20.4682 7.51552 20.4567 7.39575 20.4341L7.38599 20.4829L7.39575 20.4331H3.76978C3.2527 20.433 2.7565 20.2275 2.39087 19.8618C2.0253 19.4961 1.81958 19 1.81958 18.4829V7.64209L1.76685 7.69385C1.47081 7.42322 1.23227 7.09512 1.06763 6.729C0.896493 6.34832 0.808255 5.93545 0.808838 5.51807V3.51807C0.808838 2.73568 1.11986 1.98536 1.6731 1.43213C2.22633 0.878897 2.97665 0.567872 3.75903 0.567871ZM13.7258 7.71729C13.1856 8.20185 12.4848 8.46926 11.759 8.46826H9.75903C9.00386 8.46826 8.31338 8.18429 7.79224 7.71729L7.75903 7.68701L7.72583 7.71729C7.18557 8.20185 6.48477 8.46926 5.75903 8.46826H3.71899V18.5327H5.80884V13.5181C5.80884 13.0009 6.01443 12.5049 6.38013 12.1392C6.74582 11.7735 7.24186 11.5679 7.75903 11.5679H9.75903C10.2762 11.5679 10.7722 11.7735 11.1379 12.1392C11.5036 12.5049 11.7092 13.0009 11.7092 13.5181V18.5327H17.8225V8.46826H15.759C15.0039 8.46826 14.3134 8.18429 13.7922 7.71729L13.759 7.68701L13.7258 7.71729ZM7.70923 18.5327H9.75903V18.4839H9.80884V13.4683H7.70923V18.5327ZM14.759 11.5679H15.759C16.011 11.5679 16.2527 11.668 16.4309 11.8462C16.6091 12.0244 16.7092 12.2661 16.7092 12.5181V15.5181C16.7092 15.77 16.6091 16.0118 16.4309 16.1899C16.2527 16.3681 16.011 16.4683 15.759 16.4683H14.759C14.5071 16.4683 14.2653 16.3681 14.0872 16.1899C13.909 16.0118 13.8088 15.77 13.8088 15.5181V12.5181C13.8088 12.2661 13.909 12.0244 14.0872 11.8462C14.2653 11.668 14.5071 11.5679 14.759 11.5679ZM3.75903 2.46826C3.48056 2.46826 3.21376 2.57897 3.01685 2.77588C2.81993 2.97279 2.70923 3.23959 2.70923 3.51807V5.51807C2.70923 5.79654 2.81993 6.06334 3.01685 6.26025C3.21376 6.45717 3.48056 6.56787 3.75903 6.56787H5.75903C6.03751 6.56787 6.30431 6.45717 6.50122 6.26025C6.69813 6.06334 6.80884 5.79654 6.80884 5.51807V2.46826H3.75903ZM8.70923 5.51807C8.70923 5.79654 8.81993 6.06334 9.01685 6.26025C9.21376 6.45717 9.48056 6.56787 9.75903 6.56787H11.759C12.0375 6.56787 12.3043 6.45717 12.5012 6.26025C12.6981 6.06334 12.8088 5.79654 12.8088 5.51807V2.46826H8.70923V5.51807ZM14.7092 5.51807C14.7092 5.79654 14.8199 6.06334 15.0168 6.26025C15.2138 6.45717 15.4806 6.56787 15.759 6.56787H17.759C18.0375 6.56787 18.3043 6.45717 18.5012 6.26025C18.6981 6.06334 18.8088 5.79654 18.8088 5.51807V3.51807C18.8088 3.23959 18.6981 2.97279 18.5012 2.77588C18.3043 2.57897 18.0375 2.46826 17.759 2.46826H14.7092V5.51807Z" fill="#53B175" stroke="white" stroke-width="0.1"/>
</svg>
